<?xml version="1.0" encoding="UTF-8" standalone="no"?>
<svg
   height="24px"
   viewBox="0 -960 960 960"
   width="24px"
   fill="#5f6368"
   version="1.1"
   id="svg1"
   sodipodi:docname="battery_10.svg"
   inkscape:version="1.3.2 (091e20ef0f, 2023-11-25, custom)"
   xmlns:inkscape="http://www.inkscape.org/namespaces/inkscape"
   xmlns:sodipodi="http://sodipodi.sourceforge.net/DTD/sodipodi-0.dtd"
   xmlns="http://www.w3.org/2000/svg"
   xmlns:svg="http://www.w3.org/2000/svg">
  <defs
     id="defs1" />
  <sodipodi:namedview
     id="namedview1"
     pagecolor="#505050"
     bordercolor="#ffffff"
     borderopacity="1"
     inkscape:showpageshadow="0"
     inkscape:pageopacity="0"
     inkscape:pagecheckerboard="1"
     inkscape:deskcolor="#d1d1d1"
     inkscape:zoom="9.8333333"
     inkscape:cx="11.949153"
     inkscape:cy="12"
     inkscape:window-width="946"
     inkscape:window-height="1024"
     inkscape:window-x="0"
     inkscape:window-y="0"
     inkscape:window-maximized="1"
     inkscape:current-layer="svg1" />
  <path
     d="M440-400h80v-240h-80v240Zm40 160q17 0 28.5-11.5T520-280q0-17-11.5-28.5T480-320q-17 0-28.5 11.5T440-280q0 17 11.5 28.5T480-240ZM320-80q-17 0-28.5-11.5T280-120v-640q0-17 11.5-28.5T320-800h80v-80h160v80h80q17 0 28.5 11.5T680-760v640q0 17-11.5 28.5T640-80H320Zm40-80h240v-560H360v560Zm0 0h240-240Z"
     id="path1" />
  <path
     style="fill:#11111b;fill-opacity:0.91764706;stroke-width:0.294034;stroke-linecap:round;stroke-linejoin:round"
     d="m 7.3142112,21.668839 -0.297262,-0.297261 v -8.350384 c 0,-9.2097441 -0.035081,-8.7132234 0.6320549,-8.9457883 0.1724524,-0.060117 0.764348,-0.109304 1.3153237,-0.109304 H 9.9661017 V 3 2.0338983 H 12 14.033898 V 3 3.9661017 h 1.001774 c 0.550976,0 1.147282,0.050724 1.325124,0.1127204 0.648017,0.2258999 0.622255,-0.1463668 0.622255,8.9917469 v 8.301009 l -0.297262,0.297261 -0.297262,0.297263 H 12 7.6114733 Z m 7.6349418,-8.65189 V 6 H 12 9.0508475 v 7.016949 7.016949 H 12 14.949153 Z"
     id="path2"
     transform="matrix(40,0,0,40,0,-960)" />
  <path
     style="fill:#11111b;fill-opacity:0.917647;stroke-width:0.294034;stroke-linecap:round;stroke-linejoin:round"
     d="M 10.983051,11.033898 V 8.0338983 H 12 13.016949 v 2.9999997 3 H 12 10.983051 Z"
     id="path3"
     transform="matrix(40,0,0,40,0,-960)" />
  <path
     style="fill:#11111b;fill-opacity:0.917647;stroke-width:0.294034;stroke-linecap:round;stroke-linejoin:round"
     d="m 11.480141,17.847494 c -0.332324,-0.180615 -0.53667,-0.656119 -0.450523,-1.048345 0.160408,-0.730334 1.08798,-1.038479 1.620391,-0.538304 0.881018,0.827673 -0.105222,2.165273 -1.169868,1.586649 z"
     id="path4"
     transform="matrix(40,0,0,40,0,-960)" />
</svg>
