<?xml version="1.0" encoding="UTF-8" standalone="no"?>
<svg
   height="24px"
   viewBox="0 -960 960 960"
   width="24px"
   fill="#5f6368"
   version="1.1"
   id="svg1"
   sodipodi:docname="battery_020.svg"
   inkscape:version="1.3.2 (091e20ef0f, 2023-11-25, custom)"
   xmlns:inkscape="http://www.inkscape.org/namespaces/inkscape"
   xmlns:sodipodi="http://sodipodi.sourceforge.net/DTD/sodipodi-0.dtd"
   xmlns="http://www.w3.org/2000/svg"
   xmlns:svg="http://www.w3.org/2000/svg">
  <defs
     id="defs1" />
  <sodipodi:namedview
     id="namedview1"
     pagecolor="#505050"
     bordercolor="#ffffff"
     borderopacity="1"
     inkscape:showpageshadow="0"
     inkscape:pageopacity="0"
     inkscape:pagecheckerboard="1"
     inkscape:deskcolor="#d1d1d1"
     inkscape:zoom="17.208333"
     inkscape:cx="12"
     inkscape:cy="11.970944"
     inkscape:window-width="1920"
     inkscape:window-height="1038"
     inkscape:window-x="0"
     inkscape:window-y="0"
     inkscape:window-maximized="1"
     inkscape:current-layer="svg1" />
  <path
     d="M320-80q-17 0-28.5-11.5T280-120v-640q0-17 11.5-28.5T320-800h80v-80h160v80h80q17 0 28.5 11.5T680-760v640q0 17-11.5 28.5T640-80H320Zm40-240h240v-400H360v400Z"
     id="path1" />
  <path
     style="fill:#11111b;fill-opacity:0.917647;stroke-width:0.16802;stroke-linecap:round;stroke-linejoin:round"
     d="M 7.5806541,21.914001 C 7.3689715,21.821102 7.106473,21.523517 7.0459879,21.30787 7.0220263,21.22244 7.0024213,17.4523 7.0024213,12.929782 V 4.7070218 L 7.1361011,4.4920333 C 7.209625,4.3737896 7.3665257,4.2168889 7.4847694,4.1433651 7.6869263,4.0176639 7.7682584,4.0085578 8.8474576,3.9907955 l 1.1476998,-0.01889 V 2.9883742 2.0048426 H 12 14.004843 v 0.9835316 0.9835315 l 1.147699,0.01889 c 1.304715,0.021474 1.410206,0.050678 1.685479,0.4666114 l 0.159558,0.2410908 0.01773,7.9655211 c 0.0098,4.381037 0.0012,8.128033 -0.01893,8.32666 -0.03963,0.390388 -0.176947,0.648991 -0.453394,0.853857 -0.162599,0.120498 -0.201922,0.121678 -4.474576,0.134401 -3.4948325,0.01041 -4.34407,-0.0019 -4.4877499,-0.06494 z M 14.992736,11.012107 V 6.0145278 H 12 9.0072639 v 4.9975792 4.997578 H 12 14.992736 Z"
     id="path2"
     transform="matrix(40,0,0,40,0,-960)" />
</svg>
